<?xml version="1.0" encoding="utf-8"?>
<!-- Generator: Adobe Illustrator 26.0.1, SVG Export Plug-In . SVG Version: 6.00 Build 0)  -->
<svg version="1.1" id="Layer_1" xmlns="http://www.w3.org/2000/svg" xmlns:xlink="http://www.w3.org/1999/xlink" x="0px" y="0px"
	 viewBox="0 0 1000 1000" style="enable-background:new 0 0 1000 1000;" xml:space="preserve">
<style type="text/css">
	.st0{fill:#FFFFFF;}
</style>
<path class="st0" d="M390.75,100.36l214.4,123.88c0.06,0.04,0.12,0.07,0.18,0.11l99.54,57.51c3.33,1.93,6.97,2.84,10.57,2.84
	c7.31,0,14.42-3.79,18.34-10.58c5.85-10.12,2.38-23.06-7.73-28.9l-70.19-40.55l77.71-52.74c9.67-6.56,12.19-19.72,5.62-29.39
	c-6.56-9.67-19.72-12.19-29.39-5.62l-94.64,64.24l-170.83-98.7l56.43-31.19l105.04,58.27c10.22,5.67,23.1,1.98,28.76-8.24
	c5.67-10.22,1.98-23.1-8.24-28.76L511.04,8.57c-6.37-3.54-14.12-3.54-20.5-0.02L391.1,63.52c-6.68,3.69-10.85,10.69-10.92,18.32
	C380.11,89.46,384.15,96.54,390.75,100.36z"/>
<path class="st0" d="M937.59,362.42c-6.56-3.78-14.64-3.76-21.18,0.04l-108.9,63.23c-10.1,5.87-13.54,18.82-7.67,28.92
	c5.87,10.11,18.82,13.54,28.92,7.67l77.12-44.78v301.28l-30.87,20.18c-9.78,6.39-12.52,19.51-6.13,29.29
	c4.06,6.21,10.82,9.58,17.73,9.58c3.97,0,7.99-1.12,11.56-3.45l40.45-26.45c5.98-3.91,9.58-10.57,9.58-17.71V380.76
	C948.19,373.19,944.15,366.2,937.59,362.42z"/>
<path class="st0" d="M804.5,219.76l78.92,43.78l-75.55,41.91c-10.22,5.67-13.91,18.55-8.24,28.76c3.86,6.97,11.08,10.9,18.52,10.9
	c3.47,0,6.99-0.86,10.24-2.66l108.9-60.41c6.72-3.73,10.89-10.81,10.89-18.5c0-7.69-4.17-14.77-10.89-18.5l-112.27-62.28
	c-10.22-5.67-23.1-1.98-28.76,8.24C790.6,201.21,794.29,214.09,804.5,219.76z"/>
<path class="st0" d="M267.88,281.01l208.46,118.16c3.29,1.87,6.88,2.75,10.41,2.75c7.37,0,14.53-3.86,18.43-10.73
	c5.76-10.17,2.19-23.08-7.97-28.84L288.75,244.19c-10.17-5.76-23.08-2.19-28.84,7.97C254.15,262.33,257.72,275.24,267.88,281.01z"/>
<path class="st0" d="M828.85,540.87c-6.47-3.8-14.47-3.89-21.02-0.24l-74.62,41.59V382.79c0-0.5-0.02-1.01-0.06-1.5
	c-0.01-0.14-0.03-0.28-0.04-0.41c-0.04-0.49-0.11-0.97-0.18-1.45c-0.02-0.15-0.05-0.3-0.07-0.45c-0.11-0.59-0.24-1.17-0.39-1.75
	c-0.02-0.07-0.04-0.14-0.06-0.2c-0.15-0.52-0.32-1.03-0.5-1.53c-0.05-0.14-0.1-0.28-0.16-0.43c-0.21-0.55-0.45-1.09-0.7-1.61
	c-0.05-0.1-0.11-0.2-0.16-0.29c-0.22-0.43-0.46-0.85-0.71-1.27c-0.1-0.17-0.21-0.34-0.31-0.51c-0.3-0.47-0.61-0.93-0.95-1.37
	c-0.1-0.13-0.21-0.26-0.32-0.39c-0.27-0.34-0.56-0.68-0.85-1c-0.14-0.16-0.28-0.31-0.43-0.47c-0.39-0.41-0.8-0.81-1.23-1.18
	c-0.11-0.1-0.23-0.19-0.34-0.28c-0.38-0.33-0.78-0.64-1.19-0.94c-0.12-0.09-0.25-0.18-0.37-0.27c-0.45-0.32-0.92-0.62-1.4-0.91
	c-0.06-0.04-0.13-0.07-0.19-0.1c-0.03-0.02-0.06-0.04-0.1-0.06L300.96,124.9c-10.16-5.77-23.08-2.21-28.85,7.94
	c-5.77,10.16-2.22,23.08,7.94,28.85l388.78,220.88l-167.95,93.17l-375.37-212.9l71.16-43.54c9.97-6.1,13.1-19.12,7-29.09
	c-6.1-9.97-19.12-13.1-29.09-7L72.81,245.49c-0.08,0.05-0.14,0.1-0.22,0.15c-0.47,0.3-0.93,0.61-1.38,0.94
	c-0.09,0.06-0.18,0.12-0.26,0.19c-0.47,0.36-0.92,0.75-1.36,1.15c-0.15,0.14-0.29,0.27-0.44,0.41c-0.33,0.32-0.65,0.65-0.96,0.99
	c-0.12,0.14-0.25,0.27-0.37,0.41c-0.34,0.4-0.67,0.81-0.98,1.23c-0.13,0.18-0.26,0.36-0.39,0.55c-0.26,0.37-0.5,0.76-0.74,1.15
	c-0.08,0.13-0.16,0.26-0.24,0.39c-0.27,0.48-0.52,0.97-0.76,1.47c-0.08,0.16-0.15,0.33-0.22,0.49c-0.21,0.48-0.41,0.97-0.59,1.47
	c-0.02,0.06-0.05,0.13-0.07,0.19c-0.19,0.56-0.36,1.14-0.5,1.72c-0.04,0.14-0.07,0.29-0.1,0.43c-0.12,0.51-0.22,1.02-0.29,1.54
	c-0.01,0.09-0.03,0.19-0.05,0.28c-0.08,0.58-0.13,1.16-0.16,1.75c-0.01,0.18-0.01,0.37-0.02,0.55c-0.01,0.2-0.02,0.39-0.02,0.59
	v244.24c0,7.81,4.3,14.99,11.2,18.67l405.73,216.49V856.4c0,0.04,0,0.08,0,0.12v80.88L94.12,728.53v-110.3
	c0-11.69-9.47-21.16-21.16-21.16c-11.68,0-21.16,9.47-21.16,21.16v122.9c0,7.76,4.25,14.9,11.08,18.6l427.48,231.61
	c1.14,0.64,2.33,1.18,3.56,1.6c0,0,0.01,0,0.01,0c0.88,0.3,1.77,0.54,2.67,0.72c1.38,0.28,2.78,0.42,4.19,0.42
	c3.4,0,6.85-0.82,10.05-2.55c0.15-0.08,0.29-0.16,0.44-0.24L828.6,810.63c6.61-3.76,10.69-10.78,10.69-18.39V559.11
	C839.29,551.61,835.32,544.67,828.85,540.87z M796.98,779.94L521.93,936.53V868.7l227.14-126.19c10.21-5.67,13.89-18.56,8.22-28.77
	c-5.67-10.21-18.56-13.89-28.77-8.22L521.93,820.29v-90.05c0-7.81-4.3-14.99-11.2-18.67L105.01,495.08V299.86l374.61,212.46v105.91
	c0,0.11,0.02,0.22,0.02,0.34c0.01,0.43,0.03,0.87,0.07,1.3c0.02,0.27,0.04,0.55,0.07,0.82c0.05,0.4,0.11,0.8,0.18,1.2
	c0.05,0.3,0.1,0.6,0.17,0.9c0.08,0.35,0.17,0.69,0.27,1.04c0.09,0.34,0.19,0.68,0.3,1.02c0.1,0.29,0.21,0.58,0.32,0.87
	c0.14,0.38,0.29,0.75,0.45,1.12c0.11,0.25,0.24,0.5,0.36,0.75c0.19,0.39,0.39,0.77,0.6,1.14c0.06,0.1,0.1,0.2,0.16,0.3
	c0.15,0.26,0.32,0.5,0.48,0.75c0.08,0.12,0.15,0.25,0.23,0.37c0.34,0.51,0.71,0.99,1.09,1.46c0.06,0.08,0.13,0.16,0.2,0.23
	c0.37,0.44,0.75,0.86,1.15,1.27c0.04,0.04,0.09,0.09,0.13,0.13c0.46,0.46,0.94,0.9,1.44,1.31c0.02,0.02,0.05,0.04,0.07,0.06
	c0.46,0.38,0.94,0.74,1.44,1.07c0.08,0.05,0.16,0.11,0.24,0.16c0.51,0.34,1.03,0.66,1.56,0.95c0.11,0.06,0.23,0.11,0.34,0.17
	c0.42,0.22,0.85,0.43,1.29,0.62c0.17,0.08,0.34,0.15,0.52,0.23c0.51,0.21,1.03,0.4,1.55,0.57c0.19,0.06,0.38,0.11,0.58,0.17
	c0.42,0.12,0.85,0.23,1.28,0.33c0.17,0.04,0.34,0.08,0.51,0.12c0.58,0.12,1.17,0.2,1.76,0.27c0.14,0.02,0.28,0.03,0.42,0.04
	c0.65,0.06,1.3,0.1,1.95,0.1c0.66,0,1.32-0.04,1.98-0.1c0.11-0.01,0.21-0.02,0.32-0.03c0.64-0.07,1.28-0.16,1.92-0.29
	c0.05-0.01,0.09-0.02,0.14-0.03c0.55-0.12,1.1-0.26,1.65-0.42c0.17-0.05,0.33-0.1,0.5-0.15c0.53-0.17,1.05-0.36,1.57-0.58
	c0.13-0.05,0.26-0.12,0.39-0.17c0.44-0.2,0.88-0.41,1.32-0.64c0.2-0.1,0.4-0.21,0.59-0.32c0.13-0.08,0.27-0.14,0.4-0.22
	l105.64-62.73c10.05-5.97,13.35-18.95,7.39-28.99c-5.97-10.05-18.95-13.35-28.99-7.39l-73.68,43.75v-68.6l168.96-93.73v199.51
	c0,7.5,3.97,14.44,10.44,18.24c6.47,3.8,14.47,3.89,21.02,0.24l74.62-41.59V779.94z"/>
<path class="st0" d="M403.49,539.49L177.92,417.6c-10.28-5.56-23.12-1.73-28.67,8.56c-5.56,10.28-1.72,23.12,8.56,28.67
	l225.57,121.89c3.2,1.73,6.64,2.55,10.04,2.55c7.52,0,14.81-4.02,18.63-11.1C417.6,557.89,413.77,545.05,403.49,539.49z"/>
<path class="st0" d="M383.51,823.6c3.16,1.68,6.56,2.48,9.91,2.48c7.58,0,14.9-4.08,18.7-11.24c5.48-10.32,1.56-23.13-8.76-28.61
	L177.78,666.44c-10.32-5.48-23.13-1.56-28.61,8.76c-5.48,10.32-1.56,23.13,8.76,28.61L383.51,823.6z"/>
</svg>
