<?xml version="1.0" encoding="utf-8"?>
<!-- Generator: Adobe Illustrator 26.0.1, SVG Export Plug-In . SVG Version: 6.00 Build 0)  -->
<svg version="1.1" id="Layer_1" xmlns="http://www.w3.org/2000/svg" xmlns:xlink="http://www.w3.org/1999/xlink" x="0px" y="0px"
	 viewBox="0 0 2000 500" style="enable-background:new 0 0 2000 500;" xml:space="preserve">
<style type="text/css">
	.st0{fill:#990011;}
	.st1{fill:url(#SVGID_1_);}
	.st2{fill:url(#SVGID_00000163755309990243172000000004156029227716370310_);}
	.st3{fill:url(#SVGID_00000052096258010798172090000007791681587344780222_);}
	.st4{fill:#201E20;}
</style>
<g>
	<g>
		<path class="st0" d="M113.38,294.7c0.35-0.44,0.73-0.87,1.14-1.28l0.48-0.48c4.11-4.4,6.9-6.9,6.9-6.9l73.9-73.9
			c9.42-9.42,9.42-24.7,0-34.12L169.77,152L49.99,271.79c-17.84,17.84-17.84,46.77,0,64.61l31.48,31.48
			C78.74,337.59,100.73,308.64,113.38,294.7z"/>
		<linearGradient id="SVGID_1_" gradientUnits="userSpaceOnUse" x1="189.8708" y1="422.6631" x2="89.6568" y2="324.2602">
			<stop  offset="0.0181" style="stop-color:#990011"/>
			<stop  offset="0.3944" style="stop-color:#970011"/>
			<stop  offset="0.5439" style="stop-color:#900010"/>
			<stop  offset="0.6532" style="stop-color:#84000F"/>
			<stop  offset="0.7428" style="stop-color:#72000D"/>
			<stop  offset="0.8204" style="stop-color:#5C000A"/>
			<stop  offset="0.8896" style="stop-color:#400007"/>
			<stop  offset="0.9511" style="stop-color:#200004"/>
			<stop  offset="1" style="stop-color:#000000"/>
		</linearGradient>
		<path class="st1" d="M233.85,434.09L114.52,314.76c-5.48-5.48-5.86-14.14-1.14-20.06c-12.65,13.94-34.65,42.89-31.91,73.18
			l66.2,66.2H233.85z"/>
		
			<linearGradient id="SVGID_00000177481595402426366990000016577781828423322253_" gradientUnits="userSpaceOnUse" x1="244.6235" y1="138.3598" x2="386.6046" y2="309.1534">
			<stop  offset="0.0181" style="stop-color:#990011"/>
			<stop  offset="0.3944" style="stop-color:#970011"/>
			<stop  offset="0.5439" style="stop-color:#900010"/>
			<stop  offset="0.6532" style="stop-color:#84000F"/>
			<stop  offset="0.7428" style="stop-color:#72000D"/>
			<stop  offset="0.8204" style="stop-color:#5C000A"/>
			<stop  offset="0.8896" style="stop-color:#400007"/>
			<stop  offset="0.9511" style="stop-color:#200004"/>
			<stop  offset="1" style="stop-color:#000000"/>
		</linearGradient>
		<path style="fill:url(#SVGID_00000177481595402426366990000016577781828423322253_);" d="M357.22,209.46L190.76,43l-43.09,43.09
			l203.45,203.45c6.49,6.49,7.74,16.24,3.74,23.99C381.68,277.61,365.84,229.52,357.22,209.46z"/>
		<path class="st0" d="M419.22,271.46l-62-62c8.62,20.06,24.46,68.15-2.35,104.07c-0.95,1.84-2.2,3.58-3.74,5.12L235.69,434.09
			l86.54-0.37l97-97C437.25,318.7,437.25,289.48,419.22,271.46z"/>
		
			<linearGradient id="SVGID_00000018941313164293785810000012544550806412626061_" gradientUnits="userSpaceOnUse" x1="234.7474" y1="279.1554" x2="234.6122" y2="360.9182">
			<stop  offset="0.0181" style="stop-color:#234E70"/>
			<stop  offset="0.3535" style="stop-color:#224D6E"/>
			<stop  offset="0.4743" style="stop-color:#204867"/>
			<stop  offset="0.5605" style="stop-color:#1D405C"/>
			<stop  offset="0.6301" style="stop-color:#17344B"/>
			<stop  offset="0.6897" style="stop-color:#102535"/>
			<stop  offset="0.7416" style="stop-color:#08121A"/>
			<stop  offset="0.7811" style="stop-color:#000000"/>
		</linearGradient>
		<path style="fill:url(#SVGID_00000018941313164293785810000012544550806412626061_);" d="M223.6,335.82l-25.16-25.16
			c-6.14-6.14-6.14-16.09,0-22.23l25.16-25.16c6.14-6.14,16.09-6.14,22.23,0l25.16,25.16c6.14,6.14,6.14,16.09,0,22.23l-25.16,25.16
			C239.69,341.96,229.74,341.96,223.6,335.82z"/>
	</g>
	<g>
		<g>
			<path class="st4" d="M576.7,386.42c-14.42,0-27.28-3.55-38.59-10.66c-11.31-7.1-20.27-16.82-26.88-29.13
				c-6.61-12.31-9.91-26.38-9.91-42.2c0-15.82,3.25-29.88,9.76-42.2c6.5-12.31,15.36-22.02,26.58-29.13
				c11.21-7.1,23.92-10.66,38.14-10.66c7.81,0,15.36,1.25,22.68,3.75c7.31,2.51,13.86,5.91,19.67,10.21
				c5.81,4.31,10.36,9.01,13.67,14.12s4.96,10.26,4.96,15.47l-9.01,0.6V161.16h30.94v222.26h-30.94v-37.54h6.01
				c0,4.81-1.6,9.56-4.81,14.27c-3.21,4.71-7.46,9.06-12.76,13.07c-5.31,4.01-11.41,7.21-18.32,9.61
				C590.97,385.22,583.91,386.42,576.7,386.42z M580.9,359.69c9.41,0,17.72-2.4,24.93-7.21c7.21-4.8,12.86-11.36,16.97-19.67
				c4.1-8.31,6.16-17.77,6.16-28.38c0-10.61-2.06-20.07-6.16-28.38c-4.11-8.31-9.76-14.87-16.97-19.67
				c-7.21-4.81-15.52-7.21-24.93-7.21c-9.41,0-17.72,2.4-24.93,7.21s-12.87,11.37-16.97,19.67c-4.11,8.31-6.16,17.77-6.16,28.38
				c0,10.62,2.05,20.08,6.16,28.38c4.1,8.31,9.76,14.87,16.97,19.67C563.18,357.29,571.49,359.69,580.9,359.69z"/>
			<path class="st4" d="M765.92,386.42c-16.22,0-30.59-3.45-43.1-10.36c-12.52-6.91-22.33-16.37-29.43-28.38
				c-7.11-12.01-10.66-25.83-10.66-41.45c0-12.41,2-23.73,6.01-33.94c4-10.21,9.56-19.07,16.67-26.58
				c7.1-7.51,15.62-13.31,25.53-17.42c9.91-4.1,20.67-6.16,32.29-6.16c10.21,0,19.72,1.95,28.53,5.86
				c8.81,3.9,16.47,9.26,22.98,16.07c6.5,6.81,11.51,14.87,15.02,24.18c3.5,9.31,5.15,19.48,4.96,30.49l-0.3,13.22H705.55
				l-6.91-24.63h109.03l-4.5,5.11v-7.21c-0.6-6.61-2.81-12.51-6.61-17.72c-3.81-5.2-8.61-9.31-14.42-12.31
				c-5.81-3-12.12-4.51-18.92-4.51c-10.81,0-19.93,2.06-27.33,6.16c-7.41,4.11-13.02,10.11-16.82,18.02
				c-3.81,7.91-5.71,17.67-5.71,29.28c0,11.01,2.3,20.57,6.91,28.68c4.6,8.11,11.11,14.37,19.52,18.77
				c8.41,4.41,18.12,6.61,29.13,6.61c7.81,0,15.06-1.3,21.78-3.9c6.71-2.6,13.97-7.31,21.78-14.12l15.62,21.92
				c-4.81,4.81-10.66,9.01-17.57,12.62s-14.22,6.46-21.93,8.56C780.88,385.37,773.32,386.42,765.92,386.42z"/>
			<path class="st4" d="M926.3,386.42c-14.62,0-27.68-3.6-39.2-10.81c-11.52-7.21-20.63-17.02-27.33-29.43
				c-6.71-12.41-10.06-26.33-10.06-41.75c0-15.42,3.35-29.33,10.06-41.75c6.71-12.41,15.82-22.23,27.33-29.43
				c11.51-7.21,24.58-10.81,39.2-10.81c14.01,0,26.78,2.85,38.29,8.56c11.51,5.71,20.27,13.47,26.28,23.28l-17.12,21.02
				c-3.21-4.6-7.31-8.81-12.31-12.62c-5.01-3.8-10.31-6.8-15.92-9.01c-5.61-2.2-11.01-3.3-16.22-3.3c-9.61,0-18.17,2.36-25.68,7.06
				c-7.51,4.71-13.47,11.17-17.87,19.37c-4.41,8.21-6.61,17.42-6.61,27.63s2.3,19.37,6.91,27.48c4.6,8.11,10.71,14.57,18.32,19.37
				c7.61,4.81,16.02,7.21,25.23,7.21c5.41,0,10.66-0.9,15.77-2.7c5.11-1.8,10.06-4.51,14.87-8.11c4.81-3.6,9.31-8.01,13.52-13.22
				l17.12,21.02c-6.41,9.01-15.57,16.42-27.48,22.23C951.48,383.51,939.11,386.42,926.3,386.42z"/>
			<path class="st4" d="M1081.88,386.42c-15.42,0-29.19-3.55-41.3-10.66c-12.12-7.1-21.68-16.82-28.68-29.13
				c-7.01-12.31-10.51-26.38-10.51-42.2c0-15.82,3.5-29.88,10.51-42.2c7.01-12.31,16.57-22.02,28.68-29.13
				c12.11-7.1,25.88-10.66,41.3-10.66c15.21,0,28.88,3.56,41,10.66c12.11,7.11,21.67,16.82,28.68,29.13
				c7.01,12.31,10.51,26.38,10.51,42.2c0,15.82-3.51,29.88-10.51,42.2c-7.01,12.31-16.57,22.03-28.68,29.13
				C1110.76,382.87,1097.09,386.42,1081.88,386.42z M1081.88,358.19c9.41,0,17.82-2.35,25.23-7.06c7.41-4.7,13.22-11.11,17.42-19.22
				c4.21-8.11,6.2-17.27,6.01-27.48c0.2-10.41-1.8-19.67-6.01-27.78c-4.2-8.11-10.01-14.46-17.42-19.07
				c-7.41-4.6-15.82-6.91-25.23-6.91c-9.41,0-17.87,2.36-25.38,7.06c-7.51,4.71-13.37,11.11-17.57,19.22
				c-4.21,8.11-6.21,17.27-6.01,27.48c-0.2,10.21,1.8,19.37,6.01,27.48s10.06,14.52,17.57,19.22
				C1064.01,355.83,1072.47,358.19,1081.88,358.19z"/>
			<path class="st4" d="M1252.48,386.42c-14.42,0-27.29-3.55-38.6-10.66c-11.31-7.1-20.27-16.82-26.88-29.13
				c-6.61-12.31-9.91-26.38-9.91-42.2c0-15.82,3.25-29.88,9.76-42.2c6.5-12.31,15.37-22.02,26.58-29.13
				c11.21-7.1,23.92-10.66,38.14-10.66c7.81,0,15.36,1.25,22.68,3.75c7.31,2.51,13.86,5.91,19.67,10.21
				c5.8,4.31,10.36,9.01,13.67,14.12c3.3,5.11,4.96,10.26,4.96,15.47l-9.01,0.6V161.16h30.94v222.26h-30.94v-37.54h6.01
				c0,4.81-1.61,9.56-4.81,14.27c-3.21,4.71-7.46,9.06-12.77,13.07c-5.31,4.01-11.41,7.21-18.32,9.61
				C1266.74,385.22,1259.68,386.42,1252.48,386.42z M1256.68,359.69c9.41,0,17.72-2.4,24.93-7.21c7.21-4.8,12.86-11.36,16.97-19.67
				c4.1-8.31,6.16-17.77,6.16-28.38c0-10.61-2.06-20.07-6.16-28.38c-4.11-8.31-9.76-14.87-16.97-19.67
				c-7.21-4.81-15.52-7.21-24.93-7.21c-9.41,0-17.72,2.4-24.93,7.21s-12.87,11.37-16.97,19.67c-4.11,8.31-6.16,17.77-6.16,28.38
				c0,10.62,2.05,20.08,6.16,28.38c4.1,8.31,9.76,14.87,16.97,19.67C1238.96,357.29,1247.27,359.69,1256.68,359.69z"/>
			<path class="st4" d="M1441.69,386.42c-16.22,0-30.59-3.45-43.1-10.36c-12.52-6.91-22.33-16.37-29.43-28.38
				c-7.11-12.01-10.66-25.83-10.66-41.45c0-12.41,2-23.73,6.01-33.94c4-10.21,9.56-19.07,16.67-26.58
				c7.11-7.51,15.62-13.31,25.53-17.42c9.91-4.1,20.67-6.16,32.29-6.16c10.21,0,19.72,1.95,28.53,5.86
				c8.81,3.9,16.47,9.26,22.98,16.07c6.5,6.81,11.51,14.87,15.02,24.18c3.5,9.31,5.15,19.48,4.96,30.49l-0.3,13.22h-128.85
				l-6.91-24.63h109.03l-4.51,5.11v-7.21c-0.6-6.61-2.81-12.51-6.61-17.72c-3.81-5.2-8.61-9.31-14.42-12.31
				c-5.81-3-12.12-4.51-18.92-4.51c-10.81,0-19.93,2.06-27.33,6.16c-7.41,4.11-13.02,10.11-16.82,18.02
				c-3.81,7.91-5.71,17.67-5.71,29.28c0,11.01,2.3,20.57,6.91,28.68c4.6,8.11,11.11,14.37,19.52,18.77
				c8.41,4.41,18.12,6.61,29.13,6.61c7.81,0,15.06-1.3,21.78-3.9c6.71-2.6,13.97-7.31,21.78-14.12l15.62,21.92
				c-4.81,4.81-10.66,9.01-17.57,12.62c-6.91,3.6-14.22,6.46-21.92,8.56C1456.66,385.37,1449.1,386.42,1441.69,386.42z"/>
			<path class="st4" d="M1587.66,386.42c-13.22,0-25.13-2.3-35.74-6.91c-10.62-4.6-19.42-11.41-26.43-20.42l21.02-18.02
				c6.01,7.01,12.56,12.07,19.67,15.17c7.1,3.11,15.17,4.66,24.18,4.66c3.6,0,6.96-0.45,10.06-1.35c3.1-0.9,5.81-2.25,8.11-4.05
				c2.3-1.8,4.05-3.95,5.26-6.46c1.2-2.5,1.8-5.26,1.8-8.26c0-5.21-1.91-9.41-5.71-12.62c-2-1.4-5.16-2.95-9.46-4.66
				c-4.31-1.7-9.86-3.45-16.67-5.26c-11.62-3-21.13-6.41-28.53-10.21c-7.41-3.8-13.12-8.11-17.12-12.92c-3-3.8-5.21-7.96-6.61-12.46
				c-1.4-4.5-2.1-9.46-2.1-14.87c0-6.61,1.45-12.66,4.35-18.17c2.9-5.5,6.91-10.31,12.01-14.42c5.11-4.1,11.11-7.26,18.02-9.46
				c6.91-2.2,14.27-3.3,22.08-3.3c7.41,0,14.76,1,22.08,3c7.31,2,14.07,4.91,20.27,8.71c6.2,3.81,11.41,8.31,15.62,13.52
				l-17.72,19.52c-3.81-3.8-7.96-7.16-12.46-10.06c-4.51-2.9-9.06-5.15-13.67-6.76c-4.61-1.6-8.81-2.4-12.62-2.4
				c-4.2,0-8.01,0.4-11.41,1.2c-3.41,0.8-6.26,2-8.56,3.6c-2.3,1.61-4.05,3.6-5.26,6.01c-1.2,2.4-1.8,5.11-1.8,8.11
				c0.2,2.6,0.85,5.06,1.95,7.36c1.1,2.3,2.65,4.26,4.66,5.86c2.2,1.6,5.5,3.3,9.91,5.11c4.4,1.8,10.01,3.51,16.82,5.11
				c10.01,2.6,18.27,5.46,24.78,8.56c6.5,3.11,11.66,6.66,15.47,10.66c4,3.81,6.8,8.21,8.41,13.21c1.6,5.01,2.4,10.62,2.4,16.82
				c0,9.01-2.55,17.07-7.66,24.18c-5.11,7.11-11.97,12.67-20.57,16.67C1607.88,384.42,1598.27,386.42,1587.66,386.42z"/>
			<path class="st4" d="M1682.57,386.72c-6.61,0-11.71-1.95-15.32-5.86c-3.6-3.91-5.41-9.46-5.41-16.67c0-6.61,1.9-12.01,5.71-16.22
				c3.8-4.21,8.81-6.31,15.02-6.31c6.61,0,11.71,1.95,15.32,5.86c3.6,3.9,5.41,9.46,5.41,16.67c0,6.61-1.91,12.01-5.71,16.22
				C1693.78,384.62,1688.77,386.72,1682.57,386.72z"/>
			<path class="st0" d="M1790.09,386.42c-13.02,0-24.88-3.6-35.59-10.81c-10.71-7.21-19.27-17.02-25.68-29.43
				c-6.41-12.41-9.61-26.43-9.61-42.05c0-15.82,3.25-29.89,9.76-42.2c6.5-12.31,15.32-21.97,26.43-28.98
				c11.11-7.01,23.58-10.51,37.39-10.51c8.21,0,15.72,1.2,22.53,3.6c6.8,2.4,12.76,5.76,17.87,10.06
				c5.11,4.31,9.31,9.26,12.61,14.87c3.3,5.61,5.35,11.62,6.16,18.02l-6.91-2.4v-40.85h31.24v157.68h-31.24v-37.54l7.21-2.1
				c-1.2,5.41-3.66,10.66-7.36,15.77c-3.71,5.11-8.41,9.66-14.12,13.67c-5.71,4.01-12.01,7.21-18.92,9.61
				C1804.96,385.22,1797.7,386.42,1790.09,386.42z M1798.2,357.89c9.41,0,17.72-2.3,24.93-6.91c7.21-4.6,12.86-10.96,16.97-19.07
				c4.1-8.11,6.16-17.37,6.16-27.78c0-10.21-2.05-19.32-6.16-27.33c-4.11-8.01-9.76-14.31-16.97-18.92
				c-7.21-4.6-15.52-6.91-24.93-6.91c-9.21,0-17.37,2.3-24.48,6.91c-7.11,4.61-12.72,10.92-16.82,18.92
				c-4.11,8.01-6.16,17.12-6.16,27.33c0,10.41,2.05,19.67,6.16,27.78c4.1,8.11,9.71,14.47,16.82,19.07
				C1780.83,355.59,1788.99,357.89,1798.2,357.89z"/>
			<path class="st0" d="M1930.66,190.89c-6.61,0-11.71-1.7-15.32-5.11c-3.6-3.4-5.41-8.21-5.41-14.42c0-5.81,1.85-10.51,5.56-14.12
				c3.7-3.6,8.76-5.41,15.17-5.41c6.61,0,11.71,1.7,15.32,5.11c3.6,3.41,5.41,8.21,5.41,14.42c0,5.81-1.85,10.51-5.56,14.12
				C1942.12,189.09,1937.06,190.89,1930.66,190.89z M1915.64,383.42V225.73h30.94v157.68H1915.64z"/>
		</g>
	</g>
</g>
</svg>
