<?xml version="1.0" encoding="utf-8"?>
<!-- Generator: Adobe Illustrator 26.0.1, SVG Export Plug-In . SVG Version: 6.00 Build 0)  -->
<svg version="1.1" id="Layer_1" xmlns="http://www.w3.org/2000/svg" xmlns:xlink="http://www.w3.org/1999/xlink" x="0px" y="0px"
	 viewBox="0 0 1000 400" style="enable-background:new 0 0 1000 400;" xml:space="preserve">
<style type="text/css">
	.st0{fill:url(#SVGID_1_);}
	.st1{fill:url(#SVGID_00000101089010476723541950000009875822605204803983_);}
	.st2{fill:url(#SVGID_00000093864644718582926660000004025483354910182069_);}
	.st3{fill:url(#SVGID_00000041992762992334517590000000734204345117010102_);}
	.st4{fill:url(#SVGID_00000050656107884488867880000010014393125285216142_);}
	.st5{fill:url(#SVGID_00000176764113718255546260000013040169742766910094_);}
	.st6{fill:url(#SVGID_00000112630269514335090350000014578304666036368278_);}
	.st7{fill:#5DAB3E;}
	.st8{font-family:'PTSans-Caption';}
	.st9{font-size:138.2276px;}
	.st10{fill:#212529;}
</style>
<g>
	<g>
		<linearGradient id="SVGID_1_" gradientUnits="userSpaceOnUse" x1="85.6164" y1="113.2185" x2="174.3479" y2="113.2185">
			<stop  offset="0" style="stop-color:#BBD031"/>
			<stop  offset="1" style="stop-color:#5DAA3E"/>
		</linearGradient>
		<path class="st0" d="M88.2,102.22l52.46,30.31c0.01,0.01,0.03,0.02,0.05,0.03l24.35,14.07c0.82,0.47,1.71,0.7,2.58,0.7
			c1.79,0,3.53-0.93,4.49-2.59c1.43-2.48,0.58-5.64-1.89-7.07l-17.17-9.92l19.01-12.9c2.37-1.61,2.98-4.82,1.38-7.19
			c-1.61-2.37-4.82-2.98-7.19-1.38l-23.16,15.72l-41.8-24.15l13.81-7.63l25.7,14.26c2.5,1.39,5.65,0.48,7.04-2.02
			c1.39-2.5,0.48-5.65-2.02-7.04l-28.21-15.65c-1.56-0.87-3.45-0.87-5.02,0L88.29,93.21c-1.63,0.9-2.65,2.62-2.67,4.48
			S86.59,101.29,88.2,102.22z"/>
		
			<linearGradient id="SVGID_00000171691612349419018760000015628354760877370022_" gradientUnits="userSpaceOnUse" x1="187.5924" y1="216.8145" x2="224.5896" y2="216.8145">
			<stop  offset="0" style="stop-color:#BBD031"/>
			<stop  offset="0" style="stop-color:#5DAA3E"/>
		</linearGradient>
		<path style="fill:url(#SVGID_00000171691612349419018760000015628354760877370022_);" d="M222,166.34
			c-1.6-0.92-3.58-0.92-5.18,0.01l-26.64,15.47c-2.47,1.44-3.31,4.6-1.88,7.08c1.44,2.47,4.6,3.31,7.08,1.88l18.87-10.96v73.71
			l-7.55,4.94c-2.39,1.56-3.06,4.77-1.5,7.17c0.99,1.52,2.65,2.34,4.34,2.34c0.97,0,1.95-0.27,2.83-0.84l9.9-6.47
			c1.46-0.96,2.34-2.59,2.34-4.33v-85.51C224.59,168.97,223.6,167.26,222,166.34z"/>
		
			<linearGradient id="SVGID_00000139974239777436249480000003385421528356262788_" gradientUnits="userSpaceOnUse" x1="186.768" y1="141.9167" x2="224.5896" y2="141.9167">
			<stop  offset="0" style="stop-color:#BBD031"/>
			<stop  offset="0" style="stop-color:#5DAA3E"/>
		</linearGradient>
		<path style="fill:url(#SVGID_00000139974239777436249480000003385421528356262788_);" d="M189.43,131.43l19.31,10.71l-18.48,10.25
			c-2.5,1.39-3.4,4.54-2.02,7.04c0.95,1.7,2.71,2.67,4.53,2.67c0.85,0,1.71-0.21,2.51-0.65l26.64-14.78
			c1.64-0.91,2.67-2.65,2.67-4.53c0-1.88-1.02-3.61-2.67-4.53l-27.47-15.24c-2.5-1.39-5.65-0.48-7.04,2.02
			C186.03,126.9,186.93,130.05,189.43,131.43z"/>
		
			<linearGradient id="SVGID_00000000205397032154735050000002627759343286779792_" gradientUnits="userSpaceOnUse" x1="55.5169" y1="156.3714" x2="116.8747" y2="156.3714">
			<stop  offset="0" style="stop-color:#BBD031"/>
			<stop  offset="1" style="stop-color:#5DAA3E"/>
		</linearGradient>
		<path style="fill:url(#SVGID_00000000205397032154735050000002627759343286779792_);" d="M58.14,146.42l51,28.91
			c0.81,0.46,1.68,0.67,2.55,0.67c1.8,0,3.56-0.94,4.51-2.62c1.41-2.49,0.54-5.65-1.95-7.06l-51-28.91
			c-2.49-1.41-5.65-0.54-7.06,1.95C54.78,141.85,55.65,145.01,58.14,146.42z"/>
		
			<linearGradient id="SVGID_00000071546463783962117950000005586040203030586789_" gradientUnits="userSpaceOnUse" x1="5.2759" y1="214.2172" x2="197.9461" y2="214.2172">
			<stop  offset="0" style="stop-color:#BBD031"/>
			<stop  offset="1" style="stop-color:#5DAA3E"/>
		</linearGradient>
		<path style="fill:url(#SVGID_00000071546463783962117950000005586040203030586789_);" d="M195.39,210
			c-1.58-0.93-3.54-0.95-5.14-0.06l-18.26,10.17v-48.79c0-0.12-0.01-0.25-0.01-0.37c0-0.03-0.01-0.07-0.01-0.1
			c-0.01-0.12-0.03-0.24-0.04-0.35c-0.01-0.04-0.01-0.07-0.02-0.11c-0.03-0.14-0.06-0.29-0.1-0.43c0-0.02-0.01-0.03-0.02-0.05
			c-0.04-0.13-0.08-0.25-0.12-0.37c-0.01-0.03-0.03-0.07-0.04-0.1c-0.05-0.13-0.11-0.27-0.17-0.39c-0.01-0.02-0.03-0.05-0.04-0.07
			c-0.05-0.11-0.11-0.21-0.17-0.31c-0.03-0.04-0.05-0.08-0.08-0.12c-0.07-0.11-0.15-0.23-0.23-0.34c-0.02-0.03-0.05-0.06-0.08-0.1
			c-0.07-0.08-0.14-0.17-0.21-0.25c-0.03-0.04-0.07-0.08-0.11-0.11c-0.1-0.1-0.2-0.2-0.3-0.29c-0.03-0.02-0.06-0.05-0.08-0.07
			c-0.09-0.08-0.19-0.16-0.29-0.23c-0.03-0.02-0.06-0.04-0.09-0.07c-0.11-0.08-0.22-0.15-0.34-0.22c-0.02-0.01-0.03-0.02-0.05-0.02
			c-0.01,0-0.02-0.01-0.02-0.02l-103.14-58.6c-2.49-1.41-5.65-0.54-7.06,1.94c-1.41,2.49-0.54,5.65,1.94,7.06l95.12,54.04
			l-41.09,22.79l-91.84-52.09l17.41-10.65c2.44-1.49,3.21-4.68,1.71-7.12c-1.49-2.44-4.68-3.21-7.12-1.71l-24.9,15.24
			c-0.02,0.01-0.03,0.02-0.05,0.04c-0.12,0.07-0.23,0.15-0.34,0.23c-0.02,0.02-0.04,0.03-0.06,0.05c-0.12,0.09-0.23,0.18-0.33,0.28
			c-0.04,0.03-0.07,0.07-0.11,0.1c-0.08,0.08-0.16,0.16-0.23,0.24c-0.03,0.03-0.06,0.07-0.09,0.1c-0.08,0.1-0.16,0.2-0.24,0.3
			c-0.03,0.04-0.06,0.09-0.09,0.13c-0.06,0.09-0.12,0.18-0.18,0.28c-0.02,0.03-0.04,0.06-0.06,0.1c-0.07,0.12-0.13,0.24-0.19,0.36
			c-0.02,0.04-0.04,0.08-0.05,0.12c-0.05,0.12-0.1,0.24-0.14,0.36c-0.01,0.02-0.01,0.03-0.02,0.05c-0.05,0.14-0.09,0.28-0.12,0.42
			c-0.01,0.04-0.02,0.07-0.02,0.11c-0.03,0.12-0.05,0.25-0.07,0.38c0,0.02-0.01,0.05-0.01,0.07c-0.02,0.14-0.03,0.28-0.04,0.43
			c0,0.04,0,0.09,0,0.13c0,0.05,0,0.1,0,0.14v59.76c0,1.91,1.05,3.67,2.74,4.57l99.27,52.97v27.76c0,0.01,0,0.02,0,0.03v19.79
			l-94.32-51.1v-26.99c0-2.86-2.32-5.18-5.18-5.18c-2.86,0-5.18,2.32-5.18,5.18V259c0,1.9,1.04,3.65,2.71,4.55l104.59,56.67
			c0.28,0.16,0.57,0.29,0.87,0.39c0,0,0,0,0,0c0.21,0.07,0.43,0.13,0.65,0.18c0.34,0.07,0.68,0.1,1.03,0.1
			c0.83,0,1.68-0.2,2.46-0.62c0.04-0.02,0.07-0.04,0.11-0.06l77.64-44.2c1.62-0.92,2.62-2.64,2.62-4.5v-57.04
			C197.95,212.63,196.97,210.93,195.39,210z M187.59,268.49L120.3,306.8v-16.6l55.57-30.87c2.5-1.39,3.4-4.54,2.01-7.04
			c-1.39-2.5-4.54-3.4-7.04-2.01l-50.54,28.08v-22.03c0-1.91-1.05-3.67-2.74-4.57L18.29,198.8v-47.77l91.65,51.98v25.91
			c0,0.03,0,0.05,0,0.08c0,0.11,0.01,0.21,0.02,0.32c0.01,0.07,0.01,0.13,0.02,0.2c0.01,0.1,0.03,0.2,0.04,0.29
			c0.01,0.07,0.03,0.15,0.04,0.22c0.02,0.09,0.04,0.17,0.07,0.25c0.02,0.08,0.05,0.17,0.07,0.25c0.02,0.07,0.05,0.14,0.08,0.21
			c0.03,0.09,0.07,0.18,0.11,0.27c0.03,0.06,0.06,0.12,0.09,0.18c0.05,0.09,0.09,0.19,0.15,0.28c0.01,0.02,0.02,0.05,0.04,0.07
			c0.04,0.06,0.08,0.12,0.12,0.18c0.02,0.03,0.04,0.06,0.06,0.09c0.08,0.12,0.17,0.24,0.27,0.36c0.02,0.02,0.03,0.04,0.05,0.06
			c0.09,0.11,0.18,0.21,0.28,0.31c0.01,0.01,0.02,0.02,0.03,0.03c0.11,0.11,0.23,0.22,0.35,0.32c0.01,0,0.01,0.01,0.02,0.01
			c0.11,0.09,0.23,0.18,0.35,0.26c0.02,0.01,0.04,0.03,0.06,0.04c0.12,0.08,0.25,0.16,0.38,0.23c0.03,0.01,0.06,0.03,0.08,0.04
			c0.1,0.05,0.21,0.1,0.31,0.15c0.04,0.02,0.08,0.04,0.13,0.06c0.12,0.05,0.25,0.1,0.38,0.14c0.05,0.01,0.09,0.03,0.14,0.04
			c0.1,0.03,0.21,0.06,0.31,0.08c0.04,0.01,0.08,0.02,0.12,0.03c0.14,0.03,0.29,0.05,0.43,0.07c0.03,0,0.07,0.01,0.1,0.01
			c0.16,0.01,0.32,0.02,0.48,0.02c0.16,0,0.32-0.01,0.48-0.03c0.03,0,0.05,0,0.08-0.01c0.16-0.02,0.31-0.04,0.47-0.07
			c0.01,0,0.02-0.01,0.03-0.01c0.14-0.03,0.27-0.06,0.4-0.1c0.04-0.01,0.08-0.02,0.12-0.04c0.13-0.04,0.26-0.09,0.39-0.14
			c0.03-0.01,0.06-0.03,0.1-0.04c0.11-0.05,0.22-0.1,0.32-0.16c0.05-0.03,0.1-0.05,0.14-0.08c0.03-0.02,0.07-0.03,0.1-0.05
			l25.85-15.35c2.46-1.46,3.27-4.64,1.81-7.09c-1.46-2.46-4.64-3.27-7.09-1.81l-18.03,10.7v-16.79l41.34-22.93v48.81
			c0,1.84,0.97,3.53,2.55,4.46c1.58,0.93,3.54,0.95,5.14,0.06l18.26-10.17V268.49z"/>
		
			<linearGradient id="SVGID_00000123442039391951831870000016394893204592163760_" gradientUnits="userSpaceOnUse" x1="28.4927" y1="199.3056" x2="94.0376" y2="199.3056">
			<stop  offset="0" style="stop-color:#BBD031"/>
			<stop  offset="1" style="stop-color:#5DAA3E"/>
		</linearGradient>
		<path style="fill:url(#SVGID_00000123442039391951831870000016394893204592163760_);" d="M91.32,209.66l-55.19-29.82
			c-2.51-1.36-5.66-0.42-7.01,2.09c-1.36,2.52-0.42,5.66,2.09,7.01l55.19,29.82c0.78,0.42,1.63,0.62,2.46,0.62
			c1.84,0,3.62-0.98,4.56-2.72C94.77,214.16,93.84,211.02,91.32,209.66z"/>
		
			<linearGradient id="SVGID_00000056414618329096320970000000872102860387546035_" gradientUnits="userSpaceOnUse" x1="28.4927" y1="259.9472" x2="94.0376" y2="259.9472">
			<stop  offset="0" style="stop-color:#BBD031"/>
			<stop  offset="1" style="stop-color:#5DAA3E"/>
		</linearGradient>
		<path style="fill:url(#SVGID_00000056414618329096320970000000872102860387546035_);" d="M86.43,279.17
			c0.77,0.41,1.6,0.61,2.42,0.61c1.85,0,3.65-1,4.58-2.75c1.34-2.52,0.38-5.66-2.14-7L36.1,240.72c-2.53-1.34-5.66-0.38-7,2.14
			c-1.34,2.52-0.38,5.66,2.14,7L86.43,279.17z"/>
	</g>
	<text transform="matrix(1 0 0 1 257.7031 241.3974)"><tspan x="0" y="0" class="st7 st8 st9">Surface</tspan><tspan x="508.39" y="0" class="st10 st8 st9">Bot</tspan></text>
</g>
</svg>
